<svg fill="none" height="33" viewBox="0 0 32 33" width="32" xmlns="http://www.w3.org/2000/svg"><circle cx="16" cy="16.5" fill="#c23772" r="16"/><path d="m15.9981 14.0747c-1.3355 0-2.4253 1.0899-2.4253 2.4253 0 1.3355 1.0898 2.4253 2.4253 2.4253 1.3354 0 2.4252-1.0898 2.4252-2.4253 0-1.3354-1.0898-2.4253-2.4252-2.4253zm7.2738 2.4253c0-1.0043.0091-1.9995-.0473-3.002-.0564-1.1644-.322-2.1979-1.1735-3.0493-.8533-.85334-1.8848-1.11716-3.0492-1.17356-1.0043-.0564-1.9995-.0473-3.002-.0473-1.0043 0-1.9995-.0091-3.002.0473-1.1644.0564-2.1978.32204-3.04926 1.17356-.85329.8533-1.1171 1.8849-1.1735 3.0493-.0564 1.0043-.0473 1.9995-.0473 3.002s-.0091 1.9996.0473 3.002c.0564 1.1645.32203 2.1979 1.1735 3.0494.85326.8533 1.88486 1.1171 3.04926 1.1735 1.0043.0564 1.9995.0473 3.002.0473 1.0043 0 1.9995.0091 3.002-.0473 1.1644-.0564 2.1978-.322 3.0492-1.1735.8533-.8533 1.1171-1.8849 1.1735-3.0494.0583-1.0024.0473-1.9977.0473-3.002zm-7.2738 3.7316c-2.065 0-3.7316-1.6665-3.7316-3.7316 0-2.065 1.6666-3.7316 3.7316-3.7316s3.7315 1.6666 3.7315 3.7316c0 2.0651-1.6665 3.7316-3.7315 3.7316zm3.8843-6.7445c-.4821 0-.8714-.3894-.8714-.8715 0-.4822.3893-.8715.8714-.8715.4822 0 .8715.3893.8715.8715.0002.1145-.0223.2279-.066.3337-.0438.1058-.108.2019-.1889.2828-.081.081-.1771.1452-.2829.1889-.1058.0438-.2192.0662-.3337.0661z" fill="#fff"/></svg>