<svg fill="none" height="33" viewBox="0 0 28 33" width="28" xmlns="http://www.w3.org/2000/svg"><path d="m20.7506 12.0224c2.0429 1.4725 4.5456 2.339 7.2486 2.339v-5.24474c-.5116.0002-1.0218-.05364-1.5223-.16066v4.1283c-2.7027 0-5.2051-.8663-7.2485-2.3387v10.703c0 5.3542-4.3045 9.6943-9.61404 9.6943-1.98111 0-3.82254-.6039-5.35215-1.6397 1.74584 1.8001 4.18053 2.9166 6.87399 2.9166 5.3099 0 9.6146-4.34 9.6146-9.6945v-10.7029zm1.878-5.29128c-1.0441-1.15013-1.7297-2.63647-1.878-4.27973v-.67453h-1.4425c.3631 2.08849 1.6017 3.87277 3.3205 4.95426zm-15.00814 18.66348c-.58337-.7711-.89869-1.7146-.89721-2.6847 0-2.4487 1.96886-4.4343 4.39795-4.4343.4526-.0002.9026.0698 1.3341.2078v-5.362c-.5042-.0696-1.0131-.0993-1.5217-.0884v4.1735c-.4316-.138-.8818-.208-1.33466-.2077-2.429 0-4.39775 1.9853-4.39775 4.4344 0 1.7318.98405 3.231 2.41927 3.9614z" fill="#ff004f"/><path d="m19.2285 10.7455c2.0434 1.4724 4.5456 2.3387 7.2485 2.3387v-4.12831c-1.5087-.32408-2.8443-1.11901-3.8485-2.22477-1.7188-1.0816-2.9573-2.86588-3.3204-4.95426h-3.7891v20.94814c-.0086 2.4422-1.9741 4.4196-4.3979 4.4196-1.42824 0-2.69721-.6865-3.50079-1.7501-1.435-.7303-2.41916-2.2296-2.41916-3.9611 0-2.4489 1.96875-4.4345 4.39775-4.4345.4654 0 .9139.0731 1.3347.2077v-4.1735c-5.21631.1087-9.41138 4.4064-9.41138 9.6921 0 2.6385 1.04464 5.0305 2.74017 6.7782 1.52961 1.0356 3.37094 1.6397 5.35215 1.6397 5.30966 0 9.61406-4.3404 9.61406-9.6945z" fill="#000"/><path d="m26.477 8.95572v-1.11602c-1.3606.00199-2.6942-.38219-3.8485-1.10864 1.0218 1.12796 2.3672 1.9058 3.8485 2.22489m-7.169-7.17926c-.0346-.19955-.0612-.40043-.0797-.60215v-.67454h-5.2318v20.9484c-.0083 2.4419-1.9738 4.4193-4.39775 4.4193-.68717.0011-1.36496-.161-1.97859-.473.80357 1.0634 2.07254 1.7497 3.50074 1.7497 2.4238 0 4.3895-1.9771 4.398-4.4193v-20.9483zm-8.3742 11.25631v-1.1883c-.4372-.0603-.8779-.0904-1.31919-.0903-5.31016 0-9.61461 4.3403-9.61461 9.694 0 3.3566 1.6917 6.3147 4.26245 8.0547-1.69553-1.7476-2.74017-4.1397-2.74017-6.7781 0-5.2855 4.19497-9.5833 9.41152-9.692z" fill="#00f2ea"/></svg>