<svg fill="none" height="24" viewBox="0 0 24 24" width="24" xmlns="http://www.w3.org/2000/svg"><g fill="#3194bd"><path d="m8 1.22461c.42381 0 .77539.35158.77539.77539v3c0 .42381-.35158.77539-.77539.77539s-.77539-.35158-.77539-.77539v-3c0-.42381.35158-.77539.77539-.77539z" stroke="#3194bd" stroke-width=".05"/><path d="m16 1.22461c.4238 0 .7754.35158.7754.77539v3c0 .42381-.3516.77539-.7754.77539s-.7754-.35158-.7754-.77539v-3c0-.42381.3516-.77539.7754-.77539z" stroke="#3194bd" stroke-width=".05"/><path d="m8.5 14.5c-.13 0-.26-.03-.38-.08-.13-.05-.22999-.12-.32999-.21-.18-.19-.29001-.45-.29001-.71s.11001-.52.29001-.71c.1-.09.20999-.16.32999-.21.24-.1.52-.1.76 0 .12.05.22999.12.32999.21.04.05.09.1.12.15.04.06.07002.12.09002.18.03.06.05.12.06.18.01.07.01999.14.01999.2 0 .26-.11001.52-.29001.71-.1.09-.20999.16-.32999.21s-.25.08-.38.08z"/><path d="m12 14.5c-.13 0-.26-.03-.38-.08-.13-.05-.23-.12-.33-.21-.18-.19-.29-.45-.29-.71 0-.06.01-.13.02-.2.01-.06.03-.12.06-.18.02-.06.05-.12.09-.18.04-.05.08-.1.12-.15.37-.37 1.04-.37 1.42 0 .04.05.08.1.12.15.04.06.07.12.09.18.03.06.05.12.06.18.01.07.02.14.02.2 0 .26-.11.52-.29.71-.19.18-.44.29-.71.29z"/><path d="m8.5 18c-.13 0-.26-.03-.38-.08s-.22999-.12-.32999-.21c-.18-.19-.29001-.45-.29001-.71 0-.06.00999-.13.01999-.19.01-.07.03-.13.06-.19.02-.06.05002-.12.09002-.18.03-.05.08-.1.12-.15.1-.09.20999-.16.32999-.21.24-.1.52-.1.76 0 .12.05.22999.12.32999.21.04.05.09.1.12.15.04.06.07002.12.09002.18.03.06.05.12.06.19.01.06.01999.13.01999.19 0 .26-.11001.52-.29001.71-.1.09-.20999.16-.32999.21s-.25.08-.38.08z"/><g stroke="#3194bd" stroke-width=".05"><path d="m20.5 8.31458c.4238 0 .7754.35158.7754.77539 0 .4238-.3516.77539-.7754.77539h-17c-.42381 0-.77539-.35159-.77539-.77539 0-.42381.35158-.77539.77539-.77539z"/><path d="m20.1372 14.4349c.6395-.0609 1.2572.2035 1.8408.7871.3065.3065.6676.7736.7715 1.3457.1042.5743-.0518 1.25-.7715 1.9698l-3.54 3.54c-.2538.2538-.6789.4668-1.0342.5176l-1.3506.1894c-.0794.01-.1515.0206-.2334.0206-.386-.0001-.7526-.1423-1.0176-.4073-.316-.3161-.4577-.7748-.3867-1.2519l.1895-1.3496c.0508-.3554.2638-.7804.5176-1.0342l3.54-3.5401c.4826-.4825.9575-.7363 1.4746-.7871zm.0938 1.5489c-.053.0138-.1136.0428-.1807.0869-.0894.0587-.1887.1428-.293.247l-3.54 3.5401c-.0119.012-.03.0412-.0459.0742-.0078.0162-.0148.0326-.0195.0469-.0049.0147-.0069.0254-.0069.0312v.0039l-.1767 1.2168 1.2177-.1757c.0176-.0049.049-.0186.0811-.0352.0338-.0175.0632-.0359.0752-.0479l3.54-3.54c.1096-.1095.1947-.2039.253-.292.0581-.0879.0892-.1687.0927-.249.0068-.1606-.096-.3333-.3457-.583v-.001c-.0794-.0744-.1752-.1579-.2754-.2226-.1011-.0654-.2041-.1094-.2968-.1094h-.0284z"/><path d="m18.4937 15.5254c.4131-.1134.836.1246.9599.5371l.001.001c.2277.8114.8711 1.455 1.6826 1.6826h-.001c.3879.1067.6207.4945.5547.8828l-.0166.0781c-.1031.3403-.4128.5683-.7539.5684-.0718 0-.1443-.0115-.207-.0322v.0009c-1.3284-.3723-2.3855-1.4294-2.7578-2.7578-.1134-.4131.1246-.836.5371-.9599z"/><path d="m16 2.72461c1.8297 0 3.2746.52655 4.2617 1.51367s1.5137 2.43197 1.5137 4.26172v3.5c0 .4238-.3516.7754-.7754.7754s-.7754-.3516-.7754-.7754v-3.5c0-1.42633-.3463-2.48112-1.0449-3.17969s-1.7534-1.04492-3.1797-1.04492h-8c-1.42633 0-2.48112.34635-3.17969 1.04492s-1.04492 1.75336-1.04492 3.17969v8.5c0 1.4263.34635 2.4811 1.04492 3.1797s1.75336 1.0449 3.17969 1.0449h4c.4238 0 .7754.3516.7754.7754s-.3516.7754-.7754.7754h-4c-1.82975 0-3.2746-.5266-4.26172-1.5137s-1.51367-2.432-1.51367-4.2617v-8.5c0-1.82975.52655-3.2746 1.51367-4.26172s2.43197-1.51367 4.26172-1.51367z"/></g></g></svg>